<?xml version="1.0" encoding="utf-8"?>
<!-- Generator: Adobe Illustrator 24.1.2, SVG Export Plug-In . SVG Version: 6.00 Build 0)  -->
<svg version="1.1" id="Layer_1" xmlns="http://www.w3.org/2000/svg" xmlns:xlink="http://www.w3.org/1999/xlink" x="0px" y="0px"
	 viewBox="0 0 407 297" style="enable-background:new 0 0 407 297;" xml:space="preserve">
<style type="text/css">
	.st0{fill-rule:evenodd;clip-rule:evenodd;fill:#231F20;}
	.st1{fill-rule:evenodd;clip-rule:evenodd;fill:#FFFFFF;filter:url(#Adobe_OpacityMaskFilter);}
	.st2{mask:url(#mask0_1_);}
	.st3{fill-rule:evenodd;clip-rule:evenodd;fill:#FFFFFF;filter:url(#Adobe_OpacityMaskFilter_1_);}
	.st4{mask:url(#mask1_1_);}
</style>
<path class="st0" d="M151.9,77.4c-1.1,8.6-2.9,17.1-3.7,25.8c-0.9,8.7-0.9,17.5-1.8,26.2c-0.9,9.2-16.6,16.1-17.3,4.7
	c-0.5-9.2,0.9-19.2,2.4-28.4c1.5-9.3,3.4-19,6.7-27.9C140.8,70.8,153.3,67.1,151.9,77.4"/>
<path class="st0" d="M238,92.3c11.4-2.7,14.8-10.4,14.5-14.8c-0.5-2.4-3.3-2.6-6.4-0.8C240.5,80.6,236,93.4,238,92.3 M282.3,92.7
	c-4.3,6.9-9.4,13.1-15.7,18.3c-6,4.9-13.3,10-21.2,10.9c-15.4,1.8-24.8-12.5-24.3-26.3c0.5-13.2,9-28.2,21.6-33.8
	c7.5-3.4,15.8-1.7,21.9,3.7c6.9,6.2,6.9,14.9,1.8,22c-6.9,9.6-17.8,16.6-29.5,19.2c1.4,2.8,9.5,2.8,14.5,0.8
	c10.8-4.8,15.4-12.3,22.5-21.4C277.5,81.2,285.4,87.7,282.3,92.7"/>
<path class="st0" d="M218.7,62.2c-4.2,12.7-8.9,25.2-13.6,37.7c-2,5.3-4,10.6-6,15.9c-1.9,5-3.3,10.6-6.3,15.2
	c-3.2,5-8.5,7.5-14.7,5.2c-6.1-2.2-9.2-7.6-10.5-13.2c-1.2-5.1-1.2-10.5-1.4-15.7c-0.2-5.5-0.3-11.1,0-16.6
	c0.4-10.4,0.9-21.9,4.7-31.8c1.5-3.9,8.3-0.2,8.5,2.8c0.8,11.7-0.3,23.5,0.4,35.2c0.3,5.2,0.9,10.3,1.6,15.4c0.5-1.3,1-2.6,1.6-3.9
	c2.3-5.9,4.7-11.7,7-17.6c4.8-12.1,9.7-24.2,15-36.1c1.5-3.4,6.4-3,9.2-1.4C217.6,55,219.9,58.7,218.7,62.2"/>
<defs>
	<filter id="Adobe_OpacityMaskFilter" filterUnits="userSpaceOnUse" x="138.1" y="129.1" width="78.6" height="167.2">
		<feColorMatrix  type="matrix" values="1 0 0 0 0  0 1 0 0 0  0 0 1 0 0  0 0 0 1 0"/>
	</filter>
</defs>
<mask maskUnits="userSpaceOnUse" x="138.1" y="129.1" width="78.6" height="167.2" id="mask0_1_">
	<path class="st1" d="M138.1,129.1h78.6v167.2h-78.6V129.1z"/>
</mask>
<g class="st2">
	<path class="st0" d="M179.3,208c-0.3-0.2-0.5-0.4-0.8-0.6c-5.8-5.7-16.1,4.9-19.3,9.4c-4.2,5.8-6.6,13.7-5.6,20.9
		c0.1,0.7,0.3,1.3,0.4,2c0.5-0.2,1-0.3,1.5-0.6c3.5-2,6.4-5.2,8.9-8.3c5.7-6.9,8.9-15.5,14.5-22.3
		C179.1,208.3,179.2,208.2,179.3,208 M216.7,136.7c-4.6,26.9-11.3,53.5-15.6,80.5c-2.1,13.2-3.8,26.4-5.3,39.7
		c-0.7,6.7-1.5,7.4-2.1,14.1c-0.7,7.3-0.9,14.6-2.5,21.8c-1,4.5-7.1,3.9-10.1,2.6c-4.3-1.9-6.9-5.9-7.2-10.6
		c-0.4-7.2,0.8-14.5,1.6-21.7c0.7-6.9,1.5-7.9,2.5-14.7c0.2-1.4,0.4-2.8,0.6-4.2c-2.8,3.2-5.9,6.1-9.5,8.4
		c-14.2,9.3-29.5-1.9-30.8-17.4c-1-12.5,4.1-25.5,13.8-33.7c5.2-4.4,11.6-7.9,18.6-7.5c6.5,0.4,11.7,4,14.8,9.7c0,0,0,0.1,0.1,0.1
		c4.9-24.4,10.7-49.2,20-72.3C207.9,125.6,217.6,131.7,216.7,136.7"/>
</g>
<path class="st0" d="M239.9,188.8c-1.2,7.3-3.1,14.4-4,21.7c-1,7.4-1.2,14.9-2.1,22.3c-1,7.8-16.2,12.4-16.7,2.5
	c-0.4-7.9,1.2-16.4,2.8-24.1c1.6-7.9,3.6-16,6.9-23.3C229.3,182.3,241.4,180.1,239.9,188.8"/>
<path class="st0" d="M101.7,161c-0.1,0.7-0.1,1.3-0.2,2c-0.3,0-0.6,0-1,0c-0.1-0.7-0.2-1.3-0.3-2C100.8,161,101.2,161,101.7,161"/>
<path class="st0" d="M300.4,185.5c0.7-1,1.4-1.9,2.2-2.8c4.1-4.8,9.1-9.8,15.9-9.7c12.1,0.2,16.3,10.7,13.9,21.5
	c-1,4.4-2.8,8.7-3.7,13.2c-1.1,5.2-1.7,10.5-2,15.7c-0.3,6.4,0,12.9,1,19.3c0.7,4.6,2.2,9.1,2.6,13.8c0.2,2.8,0.2,9.3-4,9.5
	c-1.4,0.1-2.7-0.8-3.7-1.7c-8.4-7.4-9.8-29.9-9.8-35.8c0-10.6,1.3-21.4,4.3-31.6c0.7-2.3,1.5-4.6,2.1-7c0.1-0.5,0.5-1.2,0.4-1.7
	c0-0.3-0.3-0.7-0.6-0.6c-0.1,0-0.3,0.1-0.4,0.2c-12.3,8.5-17,20-20.3,34.2c-1.5,6.4-3,12.8-4.5,19.2c-0.4,1.8-0.9,3.7-2.1,5.1
	c-7.1,7.8-7.4-18.3-7.4-21.4c0-5.2,0.7-10.5,1.6-15.6c0.5-2.7,3.4-10.9,1.8-13.4c-2.6-3.9-8.6,2.6-10.5,4.7
	c-9.2,10.1-14.9,23.4-16,37.1c-0.2,2.2-0.3,4.6-1.9,6c-6.1,5.5-7.8-12.4-8.1-15.1c-0.8-8.4-0.1-17,2-25.2c1.5-6,7.3-27.3,16.5-24.9
	c2,0.5,3.2,2.6,3.4,4.7c0.1,1.5-0.2,3.1-0.6,4.6c5-3.2,8.6-8.2,13.9-11.2c2-1.1,4-2.1,6.3-2.4c2.2-0.2,4.7,0.4,6.2,2
	C301.2,178.6,300.7,182.4,300.4,185.5L300.4,185.5z"/>
<path class="st0" d="M312.7,125.1c0.1,0,0.2,0,0.2-0.1c0-0.1-0.1-0.2-0.1-0.2c-0.6-0.4-1-0.9-1.2-1.6c-0.1-0.4,0.3-0.3-0.4-0.4
	c-1.1-0.2-2.3,0.3-3.3,0.6c-1.9,0.8-3.6,1.9-5.1,3.3c-3.2,2.8-5.5,6.7-6.5,10.9c-0.2,1-0.3,2-0.4,3c0,0.4,0.1,0.8,0.1,1.3
	c0.1-0.1,0.3-0.1,0.4-0.2c1.1-0.7,1.9-1.5,2.8-2.4c3.6-3.5,6.8-7.6,9.2-12.1c0.4-0.7,0.9-1.3,1.5-1.7c0.5-0.3,1.3-0.7,1.9-0.6
	C312.1,125,312.4,125.1,312.7,125.1 M316.4,126.9c0.3,0.3,0.5,0.5,0.7,0.8c0.9,0.6,1.6,1.6,1.8,2.5c0.5,2.9-1.1,5.8-1.3,8.8
	c-0.2,3.2,0.8,5.7,1.3,8.8c0.3,2.2-0.6,3.9-2.9,4.1c-2.4,0.2-4.7-1.5-5.8-3.5c-0.5-1-0.9-2-1.2-3.1c-2.6,2.7-5.6,5.5-9.2,6.4
	c-4.8,1.1-9.5-1.6-11.9-5.7c-2.4-3.9-2.2-8.5-1.3-12.8c1.5-7.1,6.5-13.8,13-17.1c3.8-1.9,8-2.9,12.1-1.4c3.8,1.4,7.8,5.3,7.2,9.8
	C318.6,126.3,317.6,126.9,316.4,126.9"/>
<defs>
	<filter id="Adobe_OpacityMaskFilter_1_" filterUnits="userSpaceOnUse" x="363.2" y="66.1" width="43.7" height="97.6">
		<feColorMatrix  type="matrix" values="1 0 0 0 0  0 1 0 0 0  0 0 1 0 0  0 0 0 1 0"/>
	</filter>
</defs>
<mask maskUnits="userSpaceOnUse" x="363.2" y="66.1" width="43.7" height="97.6" id="mask1_1_">
	<path class="st3" d="M363.2,66.1h43.7v97.6h-43.7V66.1z"/>
</mask>
<g class="st4">
	<path class="st0" d="M387.3,114.4c-0.2-0.1-0.3-0.2-0.5-0.3c-3.8-3.1-9.6,3.6-11.3,6.4c-2.3,3.7-3.4,8.5-2.5,12.7
		c0.1,0.4,0.2,0.8,0.3,1.1c0.3-0.1,0.6-0.3,0.9-0.4c2-1.3,3.6-3.4,5.1-5.3c3.2-4.4,4.7-9.6,7.9-13.9
		C387.1,114.5,387.2,114.4,387.3,114.4 M406.8,70.3c-1.6,16.2-4.5,32.3-5.9,48.6c-0.7,7.9-1.1,15.9-1.4,23.9
		c-0.2,5.6-0.3,11.3-0.5,16.9c0,0.9-0.1,1.9-0.6,2.6c-0.5,0.8-1.4,1.2-2.3,1.4c-2.4,0.4-5.1-0.4-6.8-2.1c-2.6-2.8-1.9-7.1-1.8-10.6
		c0.1-4.2,0.3-8.3,0.6-12.4c0.1-0.8,0.1-1.7,0.2-2.5c-1.6,2-3.3,3.9-5.4,5.4c-8.2,6.2-18.1,0.2-19.5-9c-1.2-7.4,1.4-15.4,6.9-20.6
		c3-2.8,6.7-5.2,11-5.3c4,0,7.3,1.9,9.5,5.1c0,0,0,0,0,0.1c1.9-14.8,4.3-29.8,8.9-43.9C401,64.1,407.1,67.2,406.8,70.3"/>
</g>
<path class="st0" d="M356.9,118c-1.2,5.8-1.8,11.7-1.5,17.6c0.3,4.9,1.4,9.4,2.8,14c0.3,0.9,0.6,1.9,0.7,2.9c0.1,0.5,0.1,0.9,0,1.4
	c-0.5,1.4-3.2,1-4.3,0.7c-1.5-0.4-2.9-1.3-3.7-2.7c-2.1-3.6-3.1-7.4-3.6-11.5c-0.8-5.6-0.8-11.2-0.4-16.8c0.2-3,0.5-4.3,1.1-7.1
	c0.1-0.3,0.6-2.3,0.6-2.6c0-0.3-0.2-0.6-0.5-0.6c-0.3,0-1.3,1.1-1.4,1.3c-3.5,4.5-6,8.2-8.5,13.3c-1,2-2.1,4-2.7,6.2
	c-1,3.8-2.2,7.3-2.5,11c-0.1,1.4-1.1,3.1-2.5,3c-6.5-0.3-4.3-22-3.8-25.9c0.6-4.7,1.8-16.7,6.4-19.4c2-1.2,4.4,0.4,5.2,2.4
	c1,2.4,0.2,5.1-0.3,7.7c0.9-1.4,2-2.8,3.1-4.1c2-2.5,4.8-6,8-6.7c3.8-0.9,7.7,1.9,8.8,5.5c0.9,3.2,0,6.2-0.7,9.3
	C357.1,117.4,357,117.7,356.9,118"/>
<path class="st0" d="M356,211.3c11.4-2.7,14.8-10.4,14.5-14.8c-0.5-2.4-3.7-2-6.8-0.1c-4.3,2.8-5.1,5.5-7.6,11
	C356.1,207.5,354,212.4,356,211.3 M400.3,211.7c-4.3,6.9-9.4,13.1-15.7,18.3c-6,4.9-13.3,10-21.2,10.9
	c-15.4,1.8-24.8-12.5-24.3-26.3c0.5-13.2,9-28.2,21.6-33.8c7.5-3.4,15.8-1.7,21.8,3.7c6.9,6.2,6.9,14.9,1.8,22
	c-6.9,9.6-17.8,16.6-29.5,19.2c1.4,2.8,9.5,2.8,14.5,0.8c10.8-4.8,15.4-12.3,22.5-21.4C395.5,200.2,403.4,206.7,400.3,211.7"/>
<path class="st0" d="M252,146.4c-0.4,6.8-2.3,16.5-7.2,22.2c-2.1,2.5-4.6,4.1-7.5,4.3c-1.9,0.1-5.2-0.5-5.3-3.1
	c-0.1-3.1,0.9-6.2,1.2-9.4c0.3-2.9,0.1-5.5-0.3-8.2C231,141.4,252.7,134.1,252,146.4"/>
<path class="st0" d="M118.5,86.9c-2.7,0.5-5.5,0.6-8.3,0.8c-6.5,0.5-13,1-19.5,1.4c-1.6,0.1-3.2,0.2-4.8,0.3
	c-2.6,13.8-5.3,27.6-7.9,41.4c-1.6,8.4-3.2,16.8-4.8,25.1c-1.6,8.3-2.9,16.9-5.6,25c-1.3,3.9-6.4,3.5-9.3,2.2
	c-3.6-1.6-6.8-5.6-6.4-9.7c0.8-9.3,3.2-18.6,5.1-27.8c1.9-8.9,3.7-17.8,5.6-26.7c2-9.4,3.9-18.8,5.9-28.2c-12,0.8-43.5,2.7-55.4,3.7
	c-23.4,2-9.1-8.4-3-9.7c13.7-2.8,47.3-6.7,61.4-7.9c0.8-3.8,1.6-7.6,2.4-11.3c1.9-8.9,3.8-17.8,5.7-26.7c1.6-7.6,3.1-15.6,6.8-22.6
	c6.3-12,21.3-21.3,34.3-13c3.4,2.2,5.4,9.5-0.8,9c-14-1.3-21,11.2-23.7,23c-3.1,13.2-5.1,26.7-7.5,40c6.2-0.6,12.4-1.5,18.6-2.2
	c3.6-0.4,7.2-0.8,10.8-1.2c2.7-0.3,5.3-0.6,8-0.4c1,0.1,2,0.3,2.8,0.9c1.1,0.9,1.4,2.5,1.3,4c-0.3,2.7-1.7,5.2-3.7,7
	C123.9,85.4,121.3,86.4,118.5,86.9"/>
<path class="st0" d="M157.4,38.7c-0.3,1.5-0.6,3-1,4.4c-1,3.8-2,5.5-2.7,9.5c-0.5,2.8-2.1,8-6,7.4c-3.2-0.5-2.6-2.7-4.2-4.9
	c-1.7-2.4-4.7-3.5-6.5-5.9c-2-2.8-2.5-4.9-1.8-8.3c0.8-4.2,1-8.8,2-13c0.7-3.1,2.2-6.4,4.3-9c3.7-4.3,8.7-0.2,11.7,2.8
	C158.3,26.3,158.6,32.5,157.4,38.7"/>
</svg>
